<svg width="400" height="204" viewBox="0 0 400 204" fill="none" xmlns="http://www.w3.org/2000/svg">
<path d="M309.415 0H302.804V204H309.415V0Z" fill="#009DDB"/>
<path fill-rule="evenodd" clip-rule="evenodd" d="M281.19 38.0629H265.611C263.767 38.0629 262.265 39.5685 262.265 41.4166V162.331C262.265 164.179 263.776 165.856 265.611 165.856H281.19C283.034 165.856 284.374 164.179 284.374 162.331V41.4257C284.374 39.5775 283.034 38.0719 281.19 38.0719V38.0629ZM8.7068 72.6549C15.4078 71.3116 25.131 69.9684 36.6891 69.9684L36.6981 69.9593C60.4889 69.9593 73.558 80.5434 73.558 102.036V162.493C73.558 164.341 72.047 165.847 70.2031 165.847H55.9646C54.1207 165.847 52.6096 164.341 52.6096 162.493V159.807C44.9102 164.513 37.0309 167.199 28.9897 167.199C15.075 167.199 0 161.826 0 139.152V138.485C0 119.346 11.729 109.438 40.8626 109.438H51.4223V102.045C51.4223 91.1275 46.5652 88.4409 36.6801 88.4409C25.9585 88.4409 14.9041 89.117 9.3724 89.7842H8.5359C6.8629 89.7842 5.5227 89.2793 5.5227 86.9263V76.18C5.5227 74.3318 6.5301 73.1598 8.7068 72.6549ZM34.3415 149.574C40.3769 149.574 46.5742 147.555 51.4313 144.868L51.4403 144.877V124.223H40.8806C25.6257 124.223 22.2797 129.091 22.2797 138.494V139.161C22.2797 147.392 25.9675 149.574 34.3415 149.574ZM178.93 72.6549C185.631 71.3116 195.354 69.9684 206.912 69.9684L206.903 69.9593C230.694 69.9593 243.763 80.5434 243.763 102.036V162.493C243.763 164.341 242.261 165.847 240.417 165.847H226.179C224.335 165.847 222.824 164.341 222.824 162.493V159.807C215.124 164.513 207.245 167.199 199.204 167.199C185.289 167.199 170.214 161.826 170.214 139.152V138.485C170.214 119.346 181.943 109.438 211.095 109.438H221.646V102.045C221.646 91.1275 216.788 88.4409 206.903 88.4409C196.182 88.4409 185.127 89.117 179.596 89.7842H178.759C177.086 89.7842 175.746 89.2793 175.746 86.9263V76.18C175.746 74.3318 176.753 73.1598 178.93 72.6549ZM204.565 149.574C210.6 149.574 216.797 147.555 221.655 144.868V124.223H211.104C195.858 124.223 192.503 129.091 192.503 138.494V139.161C192.503 147.392 196.191 149.574 204.565 149.574ZM130.179 69.9774C140.397 69.9774 147.944 71.1494 151.793 72.1591C154.636 72.8262 155.31 73.8359 155.31 76.5225V87.4401C155.31 89.117 153.97 89.9554 152.297 89.9554H151.793C145.092 89.126 141.072 88.7834 130.179 88.7834C122.309 88.7834 114.097 93.3182 114.097 110.781V126.405C114.097 143.867 122.3 148.402 130.179 148.402C141.072 148.402 145.092 148.069 151.793 147.23H152.297C153.97 147.23 155.31 148.069 155.31 149.745V160.663C155.31 163.359 154.645 164.359 151.793 165.036C147.944 166.045 140.397 167.217 130.179 167.217C108.403 167.217 91.9791 153.784 91.9791 126.405V110.781C91.9791 83.4103 108.394 69.9774 130.179 69.9774Z" fill="#003E74"/>
<path fill-rule="evenodd" clip-rule="evenodd" d="M385.132 42.3723H381.768C378.467 42.3723 377.486 43.355 377.486 47.2226V52.2892H384.853C385.627 52.2892 386.184 52.8482 386.184 53.5514V56.292C386.184 56.9952 385.627 57.4911 384.853 57.4911H377.486V89.5588C377.486 90.262 376.857 90.9652 376.155 90.9652H372.719C371.946 90.9652 371.316 90.262 371.316 89.5588V57.4911L364.507 56.7158C363.734 56.6436 363.176 56.1568 363.176 55.4536V53.5514C363.176 52.8482 363.734 52.2892 364.507 52.2892H371.316V47.2226C371.316 39.6947 374.968 37.4499 381.138 37.4499C383.036 37.4499 384.16 37.6572 385.069 37.8736C385.842 38.081 386.4 38.3695 386.4 39.0005V41.3175C386.4 42.0928 385.905 42.3723 385.141 42.3723H385.132ZM344.017 91.452C339.808 91.452 335.455 91.1004 331.11 90.2529C329.851 90.0456 329.635 89.6219 329.635 88.6392V39.4152C329.635 38.712 330.13 38.081 330.894 38.081H334.474C335.176 38.081 335.805 38.6399 335.805 39.4152V52.4965C338.468 52.0007 341.769 51.7933 344.008 51.7933C354.181 51.7933 359.308 57.9779 359.308 69.0217V74.0884C359.308 84.6364 354.541 91.461 344.008 91.461L344.017 91.452ZM353.138 69.0217C353.138 61.4939 350.889 57.2116 344.017 57.2116C341.841 57.2116 338.126 57.2837 335.814 57.7074V85.6281C338.198 85.8354 341.634 86.0518 344.017 86.0518C350.961 86.0518 353.138 81.7605 353.138 74.0974V69.0307V69.0217ZM395.017 46.0956H398.597C399.37 46.0956 400 45.4645 400 44.6892V39.0636C400 38.2883 399.37 37.6572 398.597 37.6572H395.017C394.243 37.6572 393.614 38.2883 393.614 39.0636V44.6892C393.614 45.4645 394.243 46.0956 395.017 46.0956ZM395.089 90.9652H398.453C399.226 90.9652 399.856 90.3341 399.856 89.5588V53.6956C399.856 52.9203 399.226 52.2892 398.453 52.2892H395.089C394.315 52.2892 393.686 52.9203 393.686 53.6956V89.5588C393.686 90.3341 394.315 90.9652 395.089 90.9652Z" fill="#003E74"/>
</svg>