<svg enable-background="new 0 0 262.5 56.7" viewBox="0 0 262.5 56.7" xmlns="http://www.w3.org/2000/svg"><g fill="#fff"><path d="m4.7 46.7h5.1v1.1h-4v2.8h3.9v1.1h-3.9v3.7h3.9v1.1h-5zm7.4 0h1.1v8.5h3.6v1.1h-4.8v-9.6zm6.5 0h5.1v1.1h-3.9v2.8h3.9v1.1h-3.9v3.7h3.9v1.1h-5.1zm12.1.8c-1 0-2 .4-2.7 1.2s-1.1 1.7-1.1 2.8c0 .9.2 1.6.7 2.3.8 1.1 1.9 1.7 3.2 1.7 1.2 0 2.3-.5 3.2-1.5v1.5c-1 .7-2.1 1.1-3.2 1.1-1 0-2-.3-2.8-.9-1.4-1-2.2-2.4-2.2-4.1 0-1.5.5-2.7 1.5-3.7 1-.9 2.2-1.4 3.6-1.4 1.1 0 2.2.4 3.2 1v1.5c-1.2-1-2.2-1.5-3.4-1.5zm7.2.3h-2.7v-1.1h6.6v1.1h-2.7v8.5h-1.2zm5.6-1.1h2 .3c.9 0 1.6 0 2.2.5.6.4.9 1.2.9 2.1 0 1.6-.9 2.4-2.6 2.4-.1 0-.1 0-.2 0l3.7 4.6h-1.5l-3.5-4.6h-.2v4.6h-1.1zm1.1 4.2h.9c1.5 0 2.2-.2 2.2-1.5 0-1.4-.7-1.7-2.2-1.7h-.9zm14.8 4.2c-1 1-2.3 1.5-3.7 1.5s-2.7-.5-3.6-1.5c-1-1-1.5-2.2-1.5-3.6s.5-2.6 1.5-3.6c1-.9 2.3-1.5 3.6-1.5s2.7.5 3.7 1.5 1.5 2.2 1.5 3.6-.5 2.7-1.5 3.6zm-.8-.8c.8-.8 1.2-1.7 1.2-2.8s-.4-2.1-1.2-2.8c-.8-.8-1.7-1.2-2.8-1.2s-2 .4-2.8 1.2-1.2 1.8-1.2 2.8c0 1.1.4 2 1.2 2.8s1.7 1.2 2.8 1.2c1 0 2-.4 2.8-1.2zm4.6-8 7 7.7v-7.3h1.1v10l-7-7.6v7.2h-1.1zm10.9.4h1.1v9.6h-1.1zm8.4.8c-1 0-2 .4-2.7 1.2s-1.1 1.7-1.1 2.8c0 .9.2 1.6.7 2.3.8 1.1 1.9 1.7 3.2 1.7 1.2 0 2.3-.5 3.2-1.5v1.5c-1 .7-2.1 1.1-3.2 1.1-1 0-2-.3-2.8-.9-1.4-1-2.2-2.4-2.2-4.1 0-1.5.5-2.7 1.5-3.7 1-.9 2.2-1.4 3.6-1.4 1.1 0 2.2.4 3.2 1v1.5c-1.1-1-2.1-1.5-3.4-1.5zm15.4 6.1c0 1.8-1.2 3-3.1 3-1.5 0-2.6-.8-3-2.2l1-.5c.3 1.2.9 1.8 1.9 1.8 1.2 0 1.9-.7 1.9-1.8 0-.9-.5-1.5-1.5-1.9l-1.2-.5c-1.3-.5-1.9-1.4-1.9-2.5 0-1.3 1.1-2.4 2.7-2.4 1.2 0 2 .5 2.5 1.5l-.9.6c-.4-.7-.9-1.1-1.6-1.1-.9 0-1.5.6-1.5 1.4 0 .7.4 1.2 1.3 1.5l1.5.5c1.3.5 1.9 1.4 1.9 2.6zm4-1.7-3.3-5.2h1.3l2.5 4.2 2.5-4.2h1.3l-3.3 5.2v4.4h-1.1v-4.4zm11.4 1.7c0 1.8-1.2 3-3.1 3-1.5 0-2.6-.8-3-2.2l1-.5c.3 1.2.9 1.8 1.9 1.8 1.2 0 1.9-.7 1.9-1.8 0-.9-.5-1.5-1.5-1.9l-1.2-.5c-1.3-.5-1.9-1.4-1.9-2.5 0-1.3 1.1-2.4 2.7-2.4 1.2 0 2 .5 2.5 1.5l-.9.6c-.4-.7-.9-1.1-1.6-1.1-.9 0-1.5.6-1.5 1.4 0 .7.4 1.2 1.3 1.5l1.4.6c1.4.4 2 1.3 2 2.5zm3.6-5.8h-2.7v-1.1h6.6v1.1h-2.7v8.5h-1.2zm5.6-1.1h5.1v1.1h-3.9v2.8h3.9v1.1h-3.9v3.7h3.9v1.1h-5.1zm8.9 3.1-1.2 6.5h-1.1l2-10 3.4 8 3.4-8 2 10h-1.1l-1.2-6.5-3 6.9zm15.6 3.8c0 1.8-1.2 3-3.1 3-1.5 0-2.6-.8-3-2.2l1-.5c.3 1.2.9 1.8 1.9 1.8 1.2 0 1.9-.7 1.9-1.8 0-.9-.5-1.5-1.5-1.9l-1.2-.5c-1.3-.5-1.9-1.4-1.9-2.5 0-1.3 1.1-2.4 2.7-2.4 1.2 0 2 .5 2.5 1.5l-.9.6c-.4-.7-.9-1.1-1.6-1.1-.9 0-1.5.6-1.5 1.4 0 .7.4 1.2 1.3 1.5l1.4.6c1.4.4 2 1.3 2 2.5z"/><path d="m147.5 12h-11.3v-2.3c0-4.1-3.3-7.4-7.4-7.4s-7.4 3.3-7.4 7.4v3.1s-2 .6-3.4 3.4c-.3-.6-.9-4-5.7-4.3h-13.9c-3.4 0-6.2 2-8.5 5.4 0-1.1-1.3-2.6-1.3-2.6 1.3-1.6 1.8-2.3 1.8-5 0-4.5-3.3-7.4-7.3-7.4-4.1 0-7.5 3.3-7.4 7.4 0 1.3 0 1.4.9 3.1-.7-.6-2-.9-3.4-.9-1.5 0-2.4.3-3.7 1.2-1.3-.8-2.2-1.1-3.7-1.2-3.4-.1-6.8 3.2-7 5.4-1.3-2.8-4.7-5.4-10.1-5.4-.6 0-1.7.3-1.7.3v-2.5c0-4.1-3.3-7.4-7.4-7.4s-7.4 3.1-7.4 7.4c-.9-4.8-7.1-7.4-12.8-7.4-13.4 0-19.4 8.8-19.4 19.6s6 19.6 19.6 19.6c5.7 0 11.9-2.6 12.8-7.4 0 4.1 3.3 7.3 7.4 7.4 3 .1 5.2-1.1 6.7-3.7 1.6 2.6 3.9 3.8 6.9 3.7 2.8-.1 4.5-1.2 6.2-3.4.9 1.3 3.4 3.7 6.2 3.7 4.1 0 7.6-3.5 7.4-7.7v-6.8c0 .3-.3-.9.6-.9s1.4-.6 2-.6v8.2c.1 4.1 3.3 7.2 7.4 7.4 3 .1 5.2-1.4 6.8-3.7 1.1 2.3 3.3 3.7 5.4 3.7h12.8c5.8-.1 10.5-4.8 10.5-10.6 0-3-.8-5-2.8-7.2 0 0 1.4-.6 2-2.3.6 2.8 3.7 4.5 3.7 4.5v8.2c0 4.1 3.3 7.4 7.4 7.4s7.4-3.3 7.4-7.4v-7.4h11.3c4.1 0 7.4-3.3 7.4-7.4-.2-3.9-3.5-7.2-7.6-7.2zm-127.9 25.8c-11.3 0-15.9-7.1-15.9-15.9s4.5-15.9 15.9-15.9c4 0 9.1 1.7 9.1 5.7 0 2-1.8 3.7-4 3.7-.8 0-3.1-.9-5.1-.9-4 0-7.4 3.3-7.4 7.4s3.4 7.4 7.4 7.4c2 0 4.3-.9 5.1-.9 2.2 0 4 1.6 4 3.7 0 4-5.2 5.7-9.1 5.7zm12.7-7.4c-.9-3.4-4-5.7-7.7-5.7-2 0-3.1.9-5.1.9s-3.7-1.7-3.7-3.7 1.7-3.7 3.7-3.7 3.1.9 5.1.9c3.7 0 6.8-2.3 7.7-5.7zm24.7 3.7c0 2-1.7 3.7-3.7 3.7s-3.7-1.7-3.7-3.7v-8.5c0-1.7-1.4-3.1-3.1-3.1s-3.1 1.4-3.1 3.1v8.5c0 2-1.7 3.7-3.7 3.7s-3.7-1.7-3.7-3.7v-24.4c0-2 1.7-3.7 3.7-3.7s3.7 1.7 3.7 3.7v7.8s1.5-1.8 5.4-1.8c5.1 0 8.2 4.1 8.2 8.7zm16.2-11.1c-1.8 0-3.7.9-3.7 2.6v8.5c0 2-1.7 3.7-3.7 3.7s-3.7-1.7-3.7-3.7v-14.8c.1-2 1.7-3.6 3.7-3.7 1.7-.1 3 .7 3.7 2.2.5-1.6 2.8-2.2 3.7-2.2 1.4 0 3.7.6 3.7 3.7 0 2.6-1.7 3.7-3.7 3.7zm13.6 11.1c0 2-1.7 3.7-3.7 3.7s-3.7-1.7-3.7-3.7v-14.8c0-2 1.7-3.7 3.7-3.7s3.7 1.7 3.7 3.7zm-3.7-20.7c-2 0-3.7-1.7-3.7-3.7s1.7-3.7 3.7-3.7 3.7 1.7 3.7 3.7-1.6 3.7-3.7 3.7zm7.4 17.6v-2.1s.6.9 1.1 1.3c-.2.1-1.1.8-1.1.8zm11.3-7.1h6.2c3.8.1 6.8 3.2 6.8 7s-3 6.9-6.8 7h-12.7c-.8 0-2.6-1.3-2.6-2.8s1.1-2.7 2.6-2.8h10.5c.8.2 1.7-.4 1.7-1.3s-.9-1.5-1.7-1.3h-7.4c-3.4-.7-5.7-3.5-5.7-7s2.2-6.3 5.7-7h13.9c1.5.2 2.6 1.3 2.6 2.8s-1.1 2.7-2.6 2.8h-10.5c-.8-.2-1.7.4-1.7 1.3 0 .8 1 1.5 1.7 1.3zm45.7-.9h-15v11.1c0 2-1.6 3.6-3.5 3.7-2.1.1-3.8-1.6-3.8-3.7v-11.1c-2 0-3.7-1.7-3.7-3.7s1.7-3.7 3.7-3.7v-6c0-2 1.7-3.7 3.7-3.7s3.7 1.7 3.7 3.7v6h15c2 0 3.7 1.7 3.7 3.7-.1 2.1-1.7 3.7-3.8 3.7z"/></g></svg>