<?xml version="1.0" encoding="UTF-8" standalone="no"?>
<!-- Created with Inkscape (http://www.inkscape.org/) -->

<svg
   xmlns:dc="http://purl.org/dc/elements/1.1/"
   xmlns:cc="http://creativecommons.org/ns#"
   xmlns:rdf="http://www.w3.org/1999/02/22-rdf-syntax-ns#"
   xmlns:svg="http://www.w3.org/2000/svg"
   xmlns="http://www.w3.org/2000/svg"
   xmlns:sodipodi="http://sodipodi.sourceforge.net/DTD/sodipodi-0.dtd"
   xmlns:inkscape="http://www.inkscape.org/namespaces/inkscape"
   width="75.009377mm"
   height="75.009377mm"
   viewBox="0 0 75.009377 75.009377"
   version="1.1"
   id="svg39"
   inkscape:version="0.92.0 r15299"
   sodipodi:docname="schiedel.svg">
  <defs
     id="defs33" />
  <sodipodi:namedview
     id="base"
     pagecolor="#ffffff"
     bordercolor="#666666"
     borderopacity="1.0"
     inkscape:pageopacity="0.0"
     inkscape:pageshadow="2"
     inkscape:zoom="0.35"
     inkscape:cx="17.464284"
     inkscape:cy="710.32143"
     inkscape:document-units="mm"
     inkscape:current-layer="layer1"
     showgrid="false"
     fit-margin-top="0"
     fit-margin-left="0"
     fit-margin-right="0"
     fit-margin-bottom="0"
     inkscape:window-width="1280"
     inkscape:window-height="744"
     inkscape:window-x="-4"
     inkscape:window-y="-4"
     inkscape:window-maximized="1" />
  <metadata
     id="metadata36">
    <rdf:RDF>
      <cc:Work
         rdf:about="">
        <dc:format>image/svg+xml</dc:format>
        <dc:type
           rdf:resource="http://purl.org/dc/dcmitype/StillImage" />
        <dc:title></dc:title>
      </cc:Work>
    </rdf:RDF>
  </metadata>
  <g
     inkscape:label="Layer 1"
     inkscape:groupmode="layer"
     id="layer1"
     transform="translate(-7.8524558,-261.76317)">
    <g
       id="g59"
       transform="matrix(0.26458333,0,0,0.26458333,7.8524558,261.76317)">
      <g
         id="g44">
	<rect
   height="283.5"
   width="283.5"
   class="st0"
   id="SVGID_1_"
   x="0"
   y="0"
   style="fill:#f2a900" />

</g>
      <path
         id="path46"
         d="m 11.2,148 c 0,2.5 0.4,4.7 1.3,6.5 0.9,1.8 2.1,3.2 3.6,4.4 1.5,1.1 3.2,2 5.1,2.5 1.9,0.5 4,0.8 6.1,0.8 2,0 4,-0.2 6,-0.7 2,-0.5 3.7,-1.2 5.2,-2.2 1.5,-1 2.7,-2.4 3.6,-4.1 0.9,-1.7 1.4,-3.8 1.4,-6.3 0,-1.8 -0.3,-3.3 -0.9,-4.6 -0.6,-1.3 -1.4,-2.3 -2.4,-3.2 -1,-0.9 -2.2,-1.6 -3.4,-2.2 -1.3,-0.6 -2.6,-1.1 -3.9,-1.5 -1.4,-0.4 -2.7,-0.8 -3.9,-1.1 -1.3,-0.3 -2.4,-0.6 -3.5,-1 -1.1,-0.4 -1.8,-0.8 -2.4,-1.3 -0.6,-0.5 -0.9,-1.1 -0.9,-1.9 0,-0.7 0.1,-1.2 0.4,-1.6 0.3,-0.4 0.7,-0.8 1.1,-1 0.5,-0.3 1,-0.4 1.5,-0.6 0.5,-0.2 1.1,-0.2 1.6,-0.2 0.7,0 1.5,0.1 2.2,0.2 0.7,0.1 1.4,0.4 2,0.8 0.6,0.4 1,0.9 1.4,1.5 0.3,0.6 0.5,1.4 0.5,2.2 h 9.6 c 0,-2.2 -0.4,-4.1 -1.3,-5.7 -0.9,-1.6 -2,-2.9 -3.4,-3.9 -1.4,-1 -3,-1.8 -4.8,-2.3 -1.8,-0.5 -3.6,-0.8 -5.4,-0.8 -1.7,0 -3.5,0.2 -5.3,0.7 -1.8,0.5 -3.4,1.1 -4.9,2.1 -1.4,1 -2.6,2.2 -3.6,3.7 -0.9,1.5 -1.4,3.4 -1.4,5.5 0,1.8 0.3,3.4 1,4.6 0.6,1.3 1.5,2.3 2.5,3.2 1,0.9 2.2,1.6 3.5,2.1 1.3,0.6 2.6,1 3.9,1.4 1.4,0.4 2.6,0.8 3.9,1.1 1.3,0.3 2.4,0.7 3.4,1.1 1,0.4 1.8,0.9 2.4,1.4 0.6,0.6 0.9,1.3 0.9,2.2 0,0.7 -0.2,1.4 -0.5,1.9 -0.3,0.5 -0.8,0.9 -1.4,1.2 -0.5,0.3 -1.2,0.5 -1.9,0.7 -0.7,0.1 -1.4,0.2 -2.1,0.2 -2.1,0 -3.7,-0.4 -5,-1.3 -1.2,-0.9 -1.9,-2.5 -2,-4.8 z m 70,-12.1 c -0.1,-2.4 -0.6,-4.5 -1.6,-6.3 -1,-1.8 -2.3,-3.4 -3.9,-4.7 -1.6,-1.3 -3.4,-2.2 -5.4,-2.9 -2,-0.7 -4,-1 -6,-1 -2.8,0 -5.3,0.5 -7.6,1.6 -2.3,1.1 -4.2,2.5 -5.8,4.4 -1.6,1.9 -2.8,4 -3.7,6.5 -0.9,2.5 -1.3,5.2 -1.3,8 0,2.9 0.4,5.6 1.3,8 0.9,2.5 2.1,4.7 3.7,6.5 1.6,1.8 3.5,3.3 5.8,4.4 2.3,1.1 4.8,1.6 7.6,1.6 2.3,0 4.5,-0.4 6.5,-1.1 2,-0.7 3.8,-1.8 5.2,-3.1 1.5,-1.4 2.7,-3.1 3.6,-5.1 0.9,-2 1.4,-4.3 1.6,-6.8 h -9.7 c -0.2,2.3 -0.9,4.1 -2.2,5.4 -1.3,1.3 -3,1.9 -5.3,1.9 -1.6,0 -2.9,-0.3 -4,-1 -1.1,-0.7 -2,-1.6 -2.7,-2.6 -0.7,-1.1 -1.2,-2.4 -1.5,-3.8 -0.3,-1.4 -0.5,-2.8 -0.5,-4.3 0,-1.5 0.2,-2.9 0.5,-4.3 0.3,-1.4 0.8,-2.6 1.5,-3.8 0.7,-1.2 1.6,-2 2.7,-2.6 1.1,-0.7 2.4,-1 4,-1 2,0 3.7,0.5 5.1,1.6 1.3,1 2.1,2.5 2.4,4.5 z m 3.9,25.4 h 9.7 v -16.2 h 12.7 v 16.2 h 9.7 v -39.5 h -9.7 v 14.4 H 94.8 v -14.4 h -9.7 z m 37.6,0 h 9.6 v -39.5 h -9.7 z m 15.3,0 h 30 v -8.9 h -20.4 v -7.5 h 18.2 v -8 H 147.6 V 130 h 19.9 v -8.2 H 138 Z m 44.1,-30.6 h 4.6 c 3.3,0 5.9,0.9 7.6,2.6 1.8,1.8 2.6,4.4 2.6,8 0,2 -0.2,3.7 -0.6,5.1 -0.4,1.4 -1,2.5 -1.8,3.4 -0.8,0.9 -1.9,1.5 -3.2,2 -1.3,0.4 -2.9,0.6 -4.7,0.7 H 182 Z m -9.6,30.6 h 15.9 c 2.8,0 5.3,-0.4 7.6,-1.3 2.2,-0.9 4.2,-2.1 5.7,-3.8 1.6,-1.7 2.8,-3.8 3.6,-6.2 0.8,-2.4 1.2,-5.3 1.2,-8.6 0,-3.1 -0.4,-5.8 -1.2,-8.2 -0.8,-2.4 -2,-4.5 -3.6,-6.2 -1.6,-1.7 -3.5,-3 -5.7,-3.9 -2.2,-0.9 -4.8,-1.3 -7.6,-1.3 h -15.9 z m 38.3,0 h 30.1 v -8.9 h -20.4 v -7.5 h 18.2 v -8 H 220.5 V 130 h 19.9 v -8.2 h -29.5 z m 34.5,0 h 26.9 v -8.9 H 255 v -30.6 h -9.6 z"
         class="st1"
         inkscape:connector-curvature="0"
         style="fill:#ffffff" />
    </g>
  </g>
  <style
     id="style41"
     type="text/css">
	.st0{fill:#F2A900;}
	.st1{fill:#FFFFFF;}
</style>
</svg>
