<svg xmlns="http://www.w3.org/2000/svg" xmlns:xlink="http://www.w3.org/1999/xlink" id="a" viewBox="0 0 792 266"><defs><style>.ah{fill:url(#aa);}.ai{fill:url(#ab);}.aj{fill:url(#g);}.ak{fill:url(#h);}.al{fill:url(#q);}.am{fill:url(#f);}.an{fill:url(#d);}.ao{fill:url(#e);}.ap{fill:url(#c);}.aq{fill:url(#b);}.ar{fill:#1a50a3;}.as{fill:url(#j);}.as,.at,.au,.av,.aw,.ax,.ay,.az{opacity:.1;}.at{fill:url(#y);}.au{fill:url(#x);}.av{fill:url(#u);}.aw{fill:url(#t);}.ax{fill:url(#v);}.ay{fill:url(#s);}.az{fill:url(#r);}.ba{fill:#65b1e5;stroke:#65b1e5;stroke-miterlimit:10;stroke-width:1.983px;}.bb{fill:url(#w);}.bb,.bc{opacity:.2;}.bc{fill:url(#l);}.bd{fill:url(#m);}.bd,.be{opacity:.3;}.be{fill:url(#z);}.bf{fill:url(#k);}.bf,.bg{opacity:.4;}.bg{fill:url(#ae);}.bh{fill:url(#p);}.bh,.bi{opacity:.6;}.bi{fill:url(#ag);}.bj{fill:url(#af);}.bj,.bk{opacity:.5;}.bl{fill:url(#ad);}.bl,.bm{opacity:.8;}.bk{fill:url(#n);}.bn{fill:url(#o);}.bn,.bo{opacity:.7;}.bm{fill:url(#i);}.bo{fill:url(#ac);}</style><radialGradient id="b" cx="87.285" cy="40.662" fx="87.285" fy="40.662" r="16.342" gradientUnits="userSpaceOnUse"><stop offset=".307" stop-color="#65b1e5"></stop><stop offset=".386" stop-color="#539edd"></stop><stop offset=".569" stop-color="#2f78cd"></stop><stop offset=".737" stop-color="#155dc2"></stop><stop offset=".887" stop-color="#054cbb"></stop><stop offset="1" stop-color="#0047b9"></stop></radialGradient><radialGradient id="c" cx="71.13" cy="50.683" fx="71.13" fy="50.683" r="17.069" xlink:href="#b"></radialGradient><radialGradient id="d" cx="104.852" cy="32.903" fx="104.852" fy="32.903" r="15.599" xlink:href="#b"></radialGradient><radialGradient id="e" cx="57.125" cy="62.484" fx="57.125" fy="62.484" r="17.698" xlink:href="#b"></radialGradient><radialGradient id="f" cx="32.015" cy="108.27" fx="32.015" fy="108.27" r="19.135" xlink:href="#b"></radialGradient><radialGradient id="g" cx="37.182" cy="89.813" fx="37.182" fy="89.813" r="18.624" xlink:href="#b"></radialGradient><radialGradient id="h" cx="45.658" cy="75.675" fx="45.658" fy="75.675" r="18.328" xlink:href="#b"></radialGradient><radialGradient id="i" cx="146.299" cy="25.386" fx="146.299" fy="25.386" r="16.47" xlink:href="#b"></radialGradient><radialGradient id="j" cx="217.223" cy="76.415" fx="217.223" fy="76.415" r="19.651" xlink:href="#b"></radialGradient><radialGradient id="k" cx="203.818" cy="41.09" fx="203.818" fy="41.09" r="21.605" xlink:href="#b"></radialGradient><radialGradient id="l" cx="216.171" cy="63.2" fx="216.171" fy="63.2" r="20.815" xlink:href="#b"></radialGradient><radialGradient id="m" cx="211.69" cy="51.216" fx="211.69" fy="51.216" r="21.554" xlink:href="#b"></radialGradient><radialGradient id="n" cx="192.864" cy="33.235" fx="192.864" fy="33.235" r="21.047" xlink:href="#b"></radialGradient><radialGradient id="o" cx="163.541" cy="25.427" fx="163.541" fy="25.427" r="18.101" xlink:href="#b"></radialGradient><radialGradient id="p" cx="179.242" cy="27.931" fx="179.242" fy="27.931" r="19.852" xlink:href="#b"></radialGradient><radialGradient id="q" cx="126.15" cy="27.759" fx="126.15" fy="27.759" r="15.621" xlink:href="#b"></radialGradient><radialGradient id="r" cx="176.015" cy="148.454" fx="176.015" fy="148.454" r="17.057" xlink:href="#b"></radialGradient><radialGradient id="s" cx="159.951" cy="158.359" fx="159.951" fy="158.359" r="16.253" xlink:href="#b"></radialGradient><radialGradient id="t" cx="190.112" cy="136.654" fx="190.112" fy="136.654" r="17.761" xlink:href="#b"></radialGradient><radialGradient id="u" cx="142.512" cy="166.021" fx="142.512" fy="166.021" r="15.581" xlink:href="#b"></radialGradient><radialGradient id="v" cx="215.507" cy="90.587" fx="215.507" fy="90.587" r="19.137" xlink:href="#b"></radialGradient><radialGradient id="w" cx="121.272" cy="171.13" fx="121.272" fy="171.13" r="15.606" xlink:href="#b"></radialGradient><radialGradient id="x" cx="210.266" cy="109.18" fx="210.266" fy="109.18" r="18.694" xlink:href="#b"></radialGradient><radialGradient id="y" cx="201.675" cy="123.431" fx="201.675" fy="123.431" r="18.328" xlink:href="#b"></radialGradient><radialGradient id="z" cx="101.186" cy="173.484" fx="101.186" fy="173.484" r="16.454" xlink:href="#b"></radialGradient><radialGradient id="aa" cx="30.302" cy="122.634" fx="30.302" fy="122.634" r="19.693" xlink:href="#b"></radialGradient><radialGradient id="ab" cx="31.43" cy="136.003" fx="31.43" fy="136.003" r="20.826" xlink:href="#b"></radialGradient><radialGradient id="ac" cx="43.804" cy="157.875" fx="43.804" fy="157.875" r="21.595" xlink:href="#b"></radialGradient><radialGradient id="ad" cx="35.948" cy="147.867" fx="35.948" fy="147.867" r="21.514" xlink:href="#b"></radialGradient><radialGradient id="ae" cx="83.856" cy="173.423" fx="83.856" fy="173.423" r="18.161" xlink:href="#b"></radialGradient><radialGradient id="af" cx="68.076" cy="170.884" fx="68.076" fy="170.884" r="19.84" xlink:href="#b"></radialGradient><radialGradient id="ag" cx="54.633" cy="165.64" fx="54.633" fy="165.64" r="20.943" xlink:href="#b"></radialGradient></defs><path class="aq" d="M73.366,29.613c4.444-2.645,9.025-5.119,13.698-7.4l14.14,34.652c-1.406,.72-2.783,1.468-4.154,2.248l-23.684-29.499Z"></path><path class="ap" d="M85.473,66.771c1.194-.91,2.407-1.804,3.653-2.671l-23.693-29.507c-4.256,2.831-8.362,5.819-12.299,8.956l32.339,23.221Z"></path><path class="an" d="M109.772,52.946c1.419-.578,2.847-1.107,4.296-1.617l-4.031-38.469c-4.869,1.612-9.677,3.419-14.403,5.435l14.137,34.651Z"></path><path class="ao" d="M75.484,75.56c.973-.992,1.962-1.965,2.983-2.923l-32.342-23.23c-3.633,3.216-7.083,6.575-10.342,10.04l39.701,16.112Z"></path><path class="am" d="M57.505,106.13c.266-1.129,.585-2.276,.947-3.427l-49.717-.207c-1.349,3.911-2.406,7.769-3.157,11.548l51.927-7.914Z"></path><path class="aj" d="M61.21,95.628c.514-1.106,1.066-2.216,1.66-3.306l-45.605-8.323c-2.172,3.737-4.093,7.548-5.772,11.418l49.717,.211Z"></path><path class="ak" d="M67.213,85.389c.794-1.119,1.611-2.224,2.476-3.31l-39.72-16.118c-3.012,3.601-5.782,7.31-8.342,11.097l45.586,8.33Z"></path><path class="bm" d="M136.073,46.313c1.423-.141,2.842-.244,4.267-.313L156.525,4.459c-4.754,.12-9.52,.482-14.288,1.069l-6.163,40.786Z"></path><path class="as" d="M243.31,67.051l-52.138,15.683c.005,.998-.055,2.018-.114,3.046l51.917-7.914c.385-3.688,.513-7.304,.335-10.815Z"></path><path class="bf" d="M179.364,57.192c.822,.711,1.596,1.451,2.341,2.216l46.567-29.21c-2.366-2.651-4.986-5.124-7.857-7.426l-41.051,34.421Z"></path><path class="bc" d="M189.748,73.11c.291,.998,.523,2.022,.729,3.067l52.116-15.672c-.553-3.544-1.385-6.985-2.521-10.282l-50.324,22.887Z"></path><path class="bd" d="M185.734,64.446c.58,.889,1.11,1.813,1.607,2.753l50.304-22.876c-1.498-3.184-3.285-6.216-5.342-9.09l-46.569,29.213Z"></path><path class="bk" d="M170.8,51.539c1.059,.528,2.087,1.077,3.075,1.673l41.054-34.412c-3.141-2.047-6.53-3.896-10.129-5.541l-34.001,38.281Z"></path><path class="bn" d="M148.81,46.033c1.308,.078,2.603,.182,3.857,.33L178.272,5.659c-4.258-.622-8.689-.998-13.275-1.167l-16.188,41.541Z"></path><path class="bh" d="M160.44,47.775c1.223,.304,2.437,.636,3.593,1.006L198.044,10.493c-3.8-1.363-7.816-2.493-12.015-3.412l-25.59,40.693Z"></path><path class="al" d="M122.947,48.631c1.421-.36,2.851-.672,4.278-.964l6.163-40.78c-4.847,.875-9.678,1.964-14.478,3.27l4.036,38.474Z"></path><path class="az" d="M161.663,132.389c-1.189,.905-2.407,1.781-3.642,2.631l23.689,29.499c4.248-2.812,8.358-5.775,12.299-8.899l-32.347-23.231Z"></path><path class="ay" d="M150.073,139.985c-1.296,.731-2.604,1.427-3.932,2.104l14.134,34.644c4.605-2.232,9.106-4.648,13.487-7.237l-23.689-29.51Z"></path><path class="aw" d="M171.817,123.53c-1.009,1.023-2.054,2.029-3.122,3.012l32.33,23.235c3.692-3.253,7.193-6.638,10.503-10.135l-39.711-16.112Z"></path><path class="av" d="M137.569,145.995c-1.404,.57-2.818,1.089-4.248,1.587l4.036,38.466c4.853-1.599,9.64-3.396,14.346-5.396l-14.134-34.656Z"></path><path class="ax" d="M190.014,92.726c-.263,1.133-.589,2.279-.948,3.433l49.719,.208c1.347-3.914,2.404-7.77,3.162-11.558l-51.933,7.917Z"></path><path class="bb" d="M124.44,150.269c-1.398,.353-2.813,.656-4.221,.944l-6.156,40.778c4.828-.876,9.64-1.948,14.417-3.249l-4.04-38.473Z"></path><path class="au" d="M186.306,103.24c-.557,1.195-1.155,2.379-1.802,3.565l45.593,8.315c2.227-3.817,4.207-7.715,5.931-11.68l-49.722-.201Z"></path><path class="at" d="M180.123,113.732c-.793,1.103-1.617,2.203-2.484,3.282l39.72,16.115c3.01-3.593,5.795-7.289,8.353-11.075l-45.589-8.321Z"></path><path class="be" d="M111.379,152.566c-1.406,.137-2.798,.233-4.2,.309l-16.185,41.528c4.734-.118,9.475-.467,14.224-1.057l6.16-40.78Z"></path><path class="ah" d="M56.368,116.508c-.027-1.133,.014-2.272,.094-3.423l-51.92,7.912c-.398,3.825-.506,7.561-.299,11.187l52.125-15.675Z"></path><path class="ai" d="M57.879,126.081c-.314-.996-.558-2.007-.776-3.034l-52.123,15.68c.574,3.53,1.435,6.947,2.585,10.234l50.315-22.879Z"></path><path class="bo" d="M68.256,141.761c-.815-.691-1.591-1.42-2.33-2.181l-46.574,29.216c2.366,2.635,4.994,5.1,7.854,7.376l41.051-34.411Z"></path><path class="bl" d="M61.887,134.561c-.563-.845-1.08-1.708-1.555-2.595l-50.323,22.882c1.497,3.121,3.265,6.1,5.302,8.92l46.577-29.207Z"></path><path class="bg" d="M98.708,152.839c-1.393-.093-2.764-.208-4.105-.37l-25.599,40.7c4.33,.637,8.841,1.038,13.518,1.208l16.186-41.538Z"></path><path class="bj" d="M86.847,151.04c-1.211-.305-2.393-.641-3.539-1.011l-34.003,38.283c3.781,1.366,7.772,2.505,11.939,3.425l25.602-40.698Z"></path><path class="bi" d="M76.565,147.262c-.959-.492-1.902-.992-2.805-1.528l-41.059,34.408c3.065,1.994,6.367,3.791,9.861,5.403l34.004-38.283Z"></path><g><path class="ba" d="M190.011,253.694l11.246-37.058h22.237l-1.728,5.697h-13.714l-2.774,9.135h12.644l-1.729,5.699h-12.644l-3.285,10.828h14.168l-1.729,5.699h-22.691Z"></path><path class="ba" d="M218.296,253.694l11.246-37.058h11.513l3.049,25.662h.114l7.788-25.662h7.958l-11.245,37.058h-11.232l-2.896-27.102h-.113l-8.223,27.102h-7.958Z"></path><path class="ba" d="M281.178,228.029c1.101-3.44,1.398-6.466-3.115-6.466-5.306,0-7.286,6.516-9.465,13.703-3.52,11.602-2.901,13.653,1.953,13.653,1.41,0,3.029-.307,4.451-.719l2.492-8.21h-4.629l1.729-5.699h13.15l-5.699,18.784c-2.44,.412-8.502,1.234-11.888,1.234-14.336,0-14.338-5.39-10.072-19.453,2.835-9.343,6.224-18.839,20.165-18.839,8.353,0,12.253,4.262,9.393,12.012h-8.467Z"></path><path class="ba" d="M288.131,253.694l11.246-37.058h8.523l-11.246,37.058h-8.523Z"></path><path class="ba" d="M302.753,253.694l11.246-37.058h11.514l3.049,25.662h.113l7.788-25.662h7.958l-11.246,37.058h-11.232l-2.896-27.102h-.114l-8.223,27.102h-7.958Z"></path><path class="ba" d="M340.351,253.694l11.245-37.058h22.237l-1.728,5.697h-13.714l-2.774,9.135h12.644l-1.73,5.699h-12.644l-3.285,10.828h14.168l-1.729,5.699h-22.691Z"></path><path class="ba" d="M369.709,253.694l11.246-37.058h22.236l-1.727,5.697h-13.714l-2.774,9.135h12.644l-1.729,5.699h-12.644l-3.284,10.828h14.167l-1.729,5.699h-22.691Z"></path><path class="ba" d="M407.419,253.694h-8.521l11.245-37.058h15.748c5.813,0,8.511,3.388,6.594,9.7-1.433,4.722-4.539,8.265-10.32,9.086l-.032,.103c1.801,.204,7.206,.613,5.182,7.285-.714,2.364-2.662,9.341-2.341,10.883h-8.355c-.443-2.259,.546-4.774,1.278-7.187,1.341-4.413,2.929-8.16-3.619-8.16h-2.2l-4.659,15.346Zm6.388-21.046h3.78c3.387,0,5.281-3.078,5.997-5.44,1.072-3.539-.158-4.875-2.866-4.875h-3.782l-3.129,10.316Z"></path><path class="ba" d="M430.457,253.694l11.245-37.058h22.237l-1.727,5.697h-13.714l-2.774,9.135h12.644l-1.729,5.699h-12.644l-3.285,10.828h14.168l-1.729,5.699h-22.691Z"></path><path class="ba" d="M470.095,216.635h14.226c11.175,0,11.207,6.775,7.704,18.322-1.729,5.699-4.726,18.736-19.289,18.736h-13.884l11.242-37.058Zm-.99,31.359h4.119c5.193,0,7.283-3.541,10.103-12.831,2.07-6.825,3.892-12.831-2.034-12.831h-4.402l-7.786,25.662Z"></path><path class="ba" d="M516.586,254.309c-10.555,0-10.816-5.644-8.42-12.062h8.523c-1.074,3.541-1.807,6.519,2.877,6.519,2.879,0,4.804-1.694,5.567-4.209,2.024-6.672-15.008-7.082-11.661-18.118,1.759-5.8,6.21-10.421,16.595-10.421,8.296,0,11.39,3.39,8.473,11.142h-8.296c.843-2.774,1.187-5.596-2.255-5.596-2.766,0-4.823,1.385-5.6,3.951-2.133,7.031,15.21,6.418,11.678,18.068-2.915,9.597-10.988,10.728-17.48,10.728Z"></path><path class="ba" d="M541.198,235.163c2.974-9.801,5.808-19.146,19.862-19.146s11.219,9.345,8.246,19.146c-2.944,9.702-5.808,19.146-19.862,19.146s-11.19-9.444-8.246-19.146Zm19.472,0c2.883-9.494,3.505-13.6-1.29-13.6s-6.664,4.106-9.547,13.6c-2.881,9.496-3.505,13.602,1.292,13.602s6.664-4.106,9.545-13.602Z"></path><path class="ba" d="M569.392,253.694l11.245-37.058h8.523l-9.376,30.899h12.755l-1.868,6.159h-21.279Z"></path><path class="ba" d="M634.319,216.635l-7.975,26.278c-1.683,5.545-6.899,11.396-17.284,11.396-9.37,0-12.545-4.415-10.429-11.396l7.975-26.278h8.523l-7.819,25.765c-1.387,4.568,.212,6.365,3.318,6.365,3.724,0,6.102-2.259,7.348-6.365l7.819-25.765h8.523Z"></path><path class="ba" d="M667.798,216.635l-1.87,6.159h-9.482l-9.376,30.899h-8.521l9.374-30.899h-9.481l1.87-6.159h27.486Z"></path><path class="ba" d="M661.639,253.694l11.245-37.058h8.523l-11.245,37.058h-8.523Z"></path><path class="ba" d="M681.434,235.163c2.974-9.801,5.808-19.146,19.862-19.146s11.219,9.345,8.246,19.146c-2.944,9.702-5.808,19.146-19.862,19.146s-11.19-9.444-8.246-19.146Zm19.472,0c2.883-9.494,3.507-13.6-1.292-13.6s-6.661,4.106-9.545,13.6c-2.881,9.496-3.505,13.602,1.292,13.602s6.664-4.106,9.545-13.602Z"></path><path class="ba" d="M709.627,253.694l11.245-37.058h11.516l3.047,25.662h.113l7.788-25.662h7.96l-11.247,37.058h-11.232l-2.896-27.102h-.114l-8.223,27.102h-7.958Z"></path><path class="ba" d="M756.973,254.309c-10.555,0-10.816-5.644-8.42-12.062h8.523c-1.074,3.541-1.807,6.519,2.877,6.519,2.879,0,4.804-1.694,5.567-4.209,2.024-6.672-15.008-7.082-11.661-18.118,1.759-5.8,6.21-10.421,16.595-10.421,8.296,0,11.39,3.39,8.473,11.142h-8.296c.843-2.774,1.187-5.596-2.255-5.596-2.766,0-4.823,1.385-5.6,3.951-2.133,7.031,15.21,6.418,11.678,18.068-2.915,9.597-10.988,10.728-17.48,10.728Z"></path></g><g><path class="ar" d="M194.856,102.022c1.416-4.164,1.027-7.289-.972-9.521-1.85-2.231-5.357-3.421-10.415-3.421-6.844,0-14.152,4.463-15.782,9.819-2.398,7.885,6.354,10.414,13.604,12.497,16.599,4.613,42.24,6.397,33.416,35.406-6.879,22.615-32.453,33.326-57.298,33.326-24.994,0-44.795-7.29-36.372-36.449h29.754c-3.226,10.116,2.54,15.62,13.251,15.62,6.844,0,16.707-3.568,18.879-10.709,4.436-14.582-18.533-11.458-38.769-21.722-9.412-4.761-11.78-14.579-8.252-26.184,8.93-25.441,33.371-32.432,55.837-32.432,22.165,0,42.53,7.886,32.87,33.771h-29.754Z"></path><path class="ar" d="M258.829,113.777h.298c8.323-8.779,17.133-12.793,28.142-12.793,22.166,0,26.089,18.892,20.115,38.531-6.652,21.869-23.363,40.614-47.315,40.614-8.332,0-14.516-4.612-17.733-11.158h-.296l-11.404,37.491h-28.266l31.405-103.247h28.268l-3.215,10.563Zm-8.144,26.778c-2.897,9.521-5.275,23.21,6.627,23.21s17.849-13.688,20.746-23.21c2.896-9.521,5.275-23.208-6.628-23.208s-17.849,13.686-20.745,23.208Z"></path><path class="ar" d="M349.126,177.896c.129-2.381,.854-4.76,2.482-10.114h-.296c-5.051,5.354-13.576,12.346-27.561,12.346-17.702,0-24.032-9.521-19.071-24.845,5.818-18.151,24.744-25.588,49.141-25.588h8.927c1.991-6.546,6.375-16.067-5.069-15.622-6.933,.297-11.199,6.992-12.41,11.456h-26.631c3.066-10.564,10.425-16.664,19.053-20.085,8.823-3.57,18.764-4.461,27.094-4.461,15.176,0,31.527,6.397,26.118,23.207l-11.675,38.383c-.95,3.125-1.351,6.397-3.026,15.323h-27.076Zm-9.984-14.132c12.201,0,16.726-11.457,19.759-21.424-5.951,0-11.514-.298-15.97,1.637-4.799,2.083-8.888,4.762-10.47,9.967-1.63,5.354,1.327,9.82,6.681,9.82Z"></path><path class="ar" d="M430.353,111.396c8.662-7.439,17.005-10.412,26.528-10.412,16.067,0,24.8,10.412,19.778,26.925l-15.206,49.988h-28.268l13.348-43.888c1.921-7.289,2.534-15.174-6.241-15.174-13.987,0-16.862,15.323-17.135,16.217l-13.033,42.845h-28.264l16.878-55.492c2.036-6.694,3.246-11.157,4.943-19.191h28.713l-2.043,8.182Z"></path><path class="ar" d="M554.037,167.482c-4.337,12.797-8.061,21.127-19.371,29.457-9.805,7.292-26.225,10.417-35.602,10.417-16.513,0-37.161-4.018-30.596-25.591h26.33c-.983,3.719-.126,5.802,1.5,7.29,1.824,1.338,4.619,1.933,7.594,1.933,12.499,0,17.173-8.034,20.522-19.043l2.58-8.479h-.298c-7.149,8.332-18.349,11.9-27.869,11.9-21.426,0-27.482-17.254-21.417-37.192,6.607-21.721,23.96-37.192,45.529-37.192,10.414,0,17.135,4.312,18.782,13.091h.298l4.043-10.86h27.524l-19.552,64.268Zm-27.146-50.135c-11.604,0-17.664,11.604-20.468,20.828-2.807,9.224-3.808,20.828,7.796,20.828s17.66-11.604,20.468-20.828c2.807-9.224,3.808-20.828-7.796-20.828Z"></path></g></svg>