<svg xmlns="http://www.w3.org/2000/svg" viewBox="0 0 395.5 45" role="img" aria-label="Würth Group">
  <style>.st0{fill:#FFFFFF}</style>
  <g>
    <path class="st0" d="M158.9,9.1v28.7h-6.3V25.2h-12.9v12.5h-6.3V9.1h6.3V20h12.9V9.1H158.9z M105.8,14.3h8.2v23.5h6.3
      V14.3h8.2V9.1h-22.7V14.3z M63.9,26.3c0,4.9-2.5,6.9-6.2,6.9c-3.7,0-6.2-1.9-6.2-6.9v-9.7h-6.5v9.7c0,6.7,3.8,12,12.6,12
      s12.7-5.3,12.7-12v-9.8H64L63.9,26.3z M45.1,14.3h6.4V9.1h-6.4V14.3z M63.9,14.3h6.4V9.1H64L63.9,14.3z M17.3,9.1l-5.9,20.7
      L6.2,9.1H0l7.9,28.7h6.4l6.2-21.4l6.2,21.4h6.7l7.8-28.7H35l-5.1,20.7L23.9,9.1H17.3z M77.2,9.1h14.1c8,0,11.2,4.5,11.2,9.4
      c-0.1,3.6-2.3,6.8-5.6,8.1l6.4,11.1h-7.2l-5.5-9.9h-7.2v9.9h-6.2L77.2,9.1z M83.4,14v8.9h7.2c4.1,0,5.8-1.8,5.8-4.4
      s-1.7-4.5-5.7-4.5L83.4,14z"/>
    <path class="st0" d="M383.3,9.1h-13v28.7h6.3v-9.2h6.7c8.8,0,12.1-4.6,12.1-9.8S392.1,9.1,383.3,9.1z M389.1,19
      c0,3-1.7,4.7-6.5,4.7h-6v-9.5h6.1C387.4,14.2,389.1,15.9,389.1,19L389.1,19z M317.3,8.4c-9.2,0-14.8,6.9-14.8,15s5.6,15,14.8,15
      c9.2,0,14.8-6.9,14.8-15S326.5,8.4,317.3,8.4z M325.8,23.5c0,6-3.3,9.8-8.5,9.8s-8.5-3.8-8.5-9.8s3.3-9.9,8.5-9.9
      S325.8,17.4,325.8,23.5z M357.4,9.1h6.2v17.4c0,6.7-3.9,12-12.9,12s-12.9-5.3-12.9-12V9.1h6.2v17.3c0,4.9,2.8,6.9,6.7,6.9
      c3.9,0,6.7-1.9,6.7-6.9V9.1z M244.8,23.5c0,6,3.3,9.9,8.9,9.9c2.2,0.1,4.4-0.5,6.3-1.7v-4.5h-6.7v-4.9h13v11.2c-1.5,1.6-5.2,5-13,5
      c-9.2,0-14.8-6.9-14.8-15s5.6-15,15.3-15c7.3,0,10.3,3.4,11.7,4.8l-4.1,4.1c-1.8-2.4-4.6-3.7-7.6-3.7
      C248.1,13.6,244.8,17.4,244.8,23.5z M272.7,37.8h6.2v-9.9h7.2l5.5,9.9h7.1l-6.5-11.1c3.3-1.3,5.6-4.6,5.6-8.2
      c0-4.9-3.2-9.4-11.2-9.4h-14V37.8z M286,14c4,0,5.7,1.8,5.7,4.5s-1.7,4.4-5.7,4.4h-7.2V14H286z"/>
    <path class="st0" d="M220.7,17.6h-41.1V0h17.1v6.9h6.9V0h17.1V17.6z M203.6,38.1V45c9.7-1.8,16.9-10.1,17.1-20v-0.4h-41.1V25
      c0.2,9.9,7.4,18.3,17.1,20v-6.9H203.6z"/>
  </g>
</svg>
