<?xml version="1.0" encoding="UTF-8" standalone="no"?>
<!-- Created with Inkscape (http://www.inkscape.org/) -->

<svg
   xmlns:dc="http://purl.org/dc/elements/1.1/"
   xmlns:cc="http://creativecommons.org/ns#"
   xmlns:rdf="http://www.w3.org/1999/02/22-rdf-syntax-ns#"
   xmlns:svg="http://www.w3.org/2000/svg"
   xmlns="http://www.w3.org/2000/svg"
   version="1.1"
   width="892.91339"
   height="274.25195"
   id="svg4492">
  <defs
     id="defs4494" />
  <metadata
     id="metadata4497">
    <rdf:RDF>
      <cc:Work
         rdf:about="">
        <dc:format>image/svg+xml</dc:format>
        <dc:type
           rdf:resource="http://purl.org/dc/dcmitype/StillImage" />
        <dc:title></dc:title>
      </cc:Work>
    </rdf:RDF>
  </metadata>
  <g
     transform="translate(33.608617,-257.17627)"
     id="layer1">
    <g
       transform="matrix(5.3895436,0,0,5.3895436,-1204.0154,-1720.3508)"
       id="g4549">
      <path
         d="m 229.46521,384.29668 -0.2655,-0.2325 -0.2265,-0.2625 -0.357,-0.579 -0.2505,-0.6345 c -0.093,-0.342 -0.1605,-0.6675 -0.213,-1.02 -0.033,-0.3585 -0.048,-0.702 -0.045,-1.0635 0.021,-0.36 0.057,-0.7035 0.114,-1.062 l 0.165,-0.6825 c 0.114,-0.3375 0.2385,-0.6375 0.399,-0.957 l 0.3855,-0.567 0.2385,-0.252 0.27,-0.2265 0.306,-0.189 0.339,-0.1455 0.3645,-0.09 0.3465,-0.0285 24.078,0.018 0.5625,0.1395 0.4995,0.2535 c 0.2295,0.1635 0.4185,0.3255 0.618,0.525 l 0.336,0.4155 c 0.3615,0.5415 0.597,1.0695 0.786,1.6905 l 0.1215,0.519 c 0.105,0.6195 0.129,1.173 0.039,1.7955 l -0.1275,0.4905 c -0.1005,0.258 -0.207,0.4605 -0.3615,0.69 l -25.581,25.7895 140.02649,0 -8.7225,8.283 -142.24199,0.093 -0.5175,-0.117 c -0.249,-0.096 -0.459,-0.201 -0.6885,-0.3405 -0.21,-0.1515 -0.393,-0.306 -0.5805,-0.486 -0.3,-0.327 -0.528,-0.6465 -0.747,-1.032 -0.1185,-0.237 -0.2205,-0.4695 -0.3135,-0.7155 -0.141,-0.4395 -0.2235,-0.84 -0.264,-1.2975 -0.007,-0.279 0.002,-0.537 0.03,-0.8145 0.051,-0.2835 0.1155,-0.5355 0.2085,-0.807 0.12,-0.2775 0.2475,-0.51 0.4125,-0.762 0.3705,-0.4665 0.798,-0.885 1.2105,-1.3125 2.9745,-3.0495 5.988,-6.063 8.988,-9.084 4.3815,-4.41 8.7675,-8.817 13.104,-13.272 0.7065,-0.732 1.4205,-1.4595 2.112,-2.205 l -13.206,0 -0.3465,-0.0285 -0.3645,-0.0915 -0.339,-0.15 -0.3015,-0.195"
         id="path3622"
         style="fill:#102035;fill-opacity:1;fill-rule:evenodd;stroke:none" />
      <path
         d="m 229.46521,384.29668 -0.2655,-0.2325 -0.2265,-0.2625 -0.357,-0.579 -0.2505,-0.6345 c -0.093,-0.342 -0.1605,-0.6675 -0.213,-1.02 -0.033,-0.3585 -0.048,-0.702 -0.045,-1.0635 0.021,-0.36 0.057,-0.7035 0.114,-1.062 l 0.165,-0.6825 c 0.114,-0.3375 0.2385,-0.6375 0.399,-0.957 l 0.3855,-0.567 0.2385,-0.252 0.27,-0.2265 0.306,-0.189 0.339,-0.1455 0.3645,-0.09 0.3465,-0.0285 24.078,0.018 0.5625,0.1395 0.4995,0.2535 c 0.2295,0.1635 0.4185,0.3255 0.618,0.525 l 0.336,0.4155 c 0.3615,0.5415 0.597,1.0695 0.786,1.6905 l 0.1215,0.519 c 0.105,0.6195 0.129,1.173 0.039,1.7955 l -0.1275,0.4905 c -0.1005,0.258 -0.207,0.4605 -0.3615,0.69 l -25.581,25.7895 140.02649,0 -8.7225,8.283 -142.24199,0.093 -0.5175,-0.117 c -0.249,-0.096 -0.459,-0.201 -0.6885,-0.3405 -0.21,-0.1515 -0.393,-0.306 -0.5805,-0.486 -0.3,-0.327 -0.528,-0.6465 -0.747,-1.032 -0.1185,-0.237 -0.2205,-0.4695 -0.3135,-0.7155 -0.141,-0.4395 -0.2235,-0.84 -0.264,-1.2975 -0.007,-0.279 0.002,-0.537 0.03,-0.8145 0.051,-0.2835 0.1155,-0.5355 0.2085,-0.807 0.12,-0.2775 0.2475,-0.51 0.4125,-0.762 0.3705,-0.4665 0.798,-0.885 1.2105,-1.3125 2.9745,-3.0495 5.988,-6.063 8.988,-9.084 4.3815,-4.41 8.7675,-8.817 13.104,-13.272 0.7065,-0.732 1.4205,-1.4595 2.112,-2.205 l -13.206,0 -0.3465,-0.0285 -0.3645,-0.0915 -0.339,-0.15 -0.3015,-0.195 z"
         id="path3624"
         style="fill:none;stroke:#102035;stroke-width:0.26999998;stroke-linecap:butt;stroke-linejoin:miter;stroke-miterlimit:22.92560005;stroke-opacity:1;stroke-dasharray:none" />
      <path
         d="m 267.78721,384.83668 c 0.039,-0.045 0.096,-0.06 0.1515,-0.075 l 9.6825,0.01 c 0.0615,0.015 0.1275,0.0285 0.1905,0.0495 l 0.015,0.129 -0.015,9.927 c -0.0495,0.1575 -0.063,0.147 -0.2355,0.1935 l -9.615,0.001 c -0.0765,-0.021 -0.159,-0.0405 -0.228,-0.078 -0.01,-0.042 -0.0165,-0.084 -0.021,-0.126 l 0.01,-9.894 c 0.0165,-0.051 0.0345,-0.096 0.0645,-0.138 z m -5.4645,-8.532 c -0.318,0.0615 -0.6015,0.132 -0.9075,0.2385 -0.267,0.1185 -0.492,0.24 -0.735,0.4035 -0.2205,0.177 -0.3975,0.348 -0.5835,0.5625 -0.162,0.222 -0.291,0.432 -0.4155,0.678 -0.1065,0.2475 -0.1905,0.4875 -0.2655,0.7455 l -0.0795,0.339 0,21.381 0.0915,0.645 c 0.078,0.3015 0.1665,0.552 0.3,0.8325 l 0.327,0.4695 0.4095,0.3765 c 0.234,0.156 0.45,0.2745 0.705,0.39 0.375,0.144 0.741,0.2445 1.131,0.3405 l 20.9865,0 c 0.333,-0.0705 0.6405,-0.1485 0.963,-0.258 l 0.5205,-0.2445 c 0.2475,-0.159 0.444,-0.312 0.6555,-0.5145 0.183,-0.2145 0.324,-0.4125 0.4665,-0.657 0.156,-0.3285 0.2625,-0.6375 0.357,-0.99 l 0.075,-0.3405 0,-21.375 c -0.03,-0.285 -0.0675,-0.5595 -0.1215,-0.843 -0.072,-0.276 -0.1545,-0.504 -0.2775,-0.7605 l -0.153,-0.2385 -0.186,-0.219 -0.213,-0.195 -0.4905,-0.3045 c -0.285,-0.123 -0.555,-0.216 -0.852,-0.3 l -0.7485,-0.162 -20.9595,0"
         id="path3626"
         style="fill:#102035;fill-opacity:1;fill-rule:evenodd;stroke:none" />
      <path
         d="m 267.78721,384.83668 c 0.039,-0.045 0.096,-0.06 0.1515,-0.075 l 9.6825,0.01 c 0.0615,0.015 0.1275,0.0285 0.1905,0.0495 l 0.015,0.129 -0.015,9.927 c -0.0495,0.1575 -0.063,0.147 -0.2355,0.1935 l -9.615,0.001 c -0.0765,-0.021 -0.159,-0.0405 -0.228,-0.078 -0.01,-0.042 -0.0165,-0.084 -0.021,-0.126 l 0.01,-9.894 c 0.0165,-0.051 0.0345,-0.096 0.0645,-0.138 z m -5.4645,-8.532 c -0.318,0.0615 -0.6015,0.132 -0.9075,0.2385 -0.267,0.1185 -0.492,0.24 -0.735,0.4035 -0.2205,0.177 -0.3975,0.348 -0.5835,0.5625 -0.162,0.222 -0.291,0.432 -0.4155,0.678 -0.1065,0.2475 -0.1905,0.4875 -0.2655,0.7455 l -0.0795,0.339 0,21.381 0.0915,0.645 c 0.078,0.3015 0.1665,0.552 0.3,0.8325 l 0.327,0.4695 0.4095,0.3765 c 0.234,0.156 0.45,0.2745 0.705,0.39 0.375,0.144 0.741,0.2445 1.131,0.3405 l 20.9865,0 c 0.333,-0.0705 0.6405,-0.1485 0.963,-0.258 l 0.5205,-0.2445 c 0.2475,-0.159 0.444,-0.312 0.6555,-0.5145 0.183,-0.2145 0.324,-0.4125 0.4665,-0.657 0.156,-0.3285 0.2625,-0.6375 0.357,-0.99 l 0.075,-0.3405 0,-21.375 c -0.03,-0.285 -0.0675,-0.5595 -0.1215,-0.843 -0.072,-0.276 -0.1545,-0.504 -0.2775,-0.7605 l -0.153,-0.2385 -0.186,-0.219 -0.213,-0.195 -0.4905,-0.3045 c -0.285,-0.123 -0.555,-0.216 -0.852,-0.3 l -0.7485,-0.162 -20.9595,0 z"
         id="path3628"
         style="fill:none;stroke:#102035;stroke-width:0.26999998;stroke-linecap:butt;stroke-linejoin:miter;stroke-miterlimit:22.92560005;stroke-opacity:1;stroke-dasharray:none" />
      <path
         d="m 288.04471,370.50418 0,30.1305 0.024,0.369 0.0795,0.3795 0.126,0.3585 0.1725,0.333 0.21,0.3 0.2415,0.267 0.2655,0.2355 0.591,0.3795 0.6435,0.27 c 0.345,0.102 0.669,0.174 1.026,0.228 0.3585,0.033 0.696,0.0435 1.056,0.033 l 0.699,-0.0855 c 0.3525,-0.078 0.669,-0.171 1.0065,-0.297 l 0.6195,-0.324 0.288,-0.204 0.2655,-0.2355 0.2415,-0.267 0.21,-0.3 0.171,-0.3315 0.1275,-0.36 0.078,-0.3795 0.024,-0.369 0,-30.114 -0.0255,-0.348 -0.081,-0.3645 -0.1335,-0.3405 -0.177,-0.312 -0.2145,-0.279 -0.243,-0.2445 -0.5505,-0.3975 -0.609,-0.288 c -0.3315,-0.1125 -0.642,-0.195 -0.9855,-0.264 -0.348,-0.048 -0.678,-0.075 -1.029,-0.084 -0.351,0.009 -0.6825,0.036 -1.029,0.084 l -0.6675,0.1545 c -0.333,0.1125 -0.6255,0.234 -0.936,0.3945 l -0.5565,0.3915 -0.2475,0.2415 -0.2205,0.2745 -0.186,0.306 -0.1425,0.336 -0.093,0.3615 -0.039,0.3615"
         id="path3630"
         style="fill:#102035;fill-opacity:1;fill-rule:evenodd;stroke:none" />
      <path
         d="m 298.02721,370.48918 0,30.129 0.024,0.369 0.078,0.3795 0.1275,0.36 0.1725,0.3315 0.21,0.3 0.24,0.267 0.267,0.2355 0.5895,0.3795 0.645,0.2715 c 0.345,0.1005 0.669,0.1725 1.026,0.228 0.3585,0.033 0.696,0.042 1.056,0.0315 l 0.699,-0.0855 c 0.3525,-0.078 0.6675,-0.1695 1.0065,-0.297 l 0.6195,-0.324 0.2865,-0.204 0.267,-0.2355 0.2415,-0.267 0.2085,-0.3 0.1725,-0.3315 0.1275,-0.36 0.078,-0.3795 0.024,-0.369 0,-30.114 -0.0255,-0.348 -0.0825,-0.3645 -0.132,-0.3405 -0.177,-0.312 -0.2145,-0.279 -0.2445,-0.2445 -0.549,-0.3975 -0.609,-0.288 c -0.3315,-0.1125 -0.6435,-0.195 -0.9855,-0.2625 -0.348,-0.0495 -0.678,-0.0765 -1.0275,-0.0855 -0.3525,0.009 -0.684,0.036 -1.032,0.0855 l -0.666,0.153 c -0.333,0.1125 -0.6255,0.234 -0.936,0.3945 l -0.5565,0.393 -0.2475,0.2415 -0.2205,0.273 -0.186,0.3075 -0.1425,0.336 -0.093,0.3615 -0.039,0.3615"
         id="path3632"
         style="fill:#102035;fill-opacity:1;fill-rule:evenodd;stroke:none" />
      <path
         d="m 311.25421,376.30468 -0.2805,0.0195 -0.582,0.1515 -0.525,0.2595 c -0.249,0.168 -0.4575,0.3345 -0.678,0.5415 l -0.3705,0.441 c -0.168,0.255 -0.294,0.4875 -0.414,0.768 l -0.147,0.5805 -0.0195,0.2775 0,21.2925 0.027,0.366 0.0825,0.378 0.135,0.3555 0.18,0.3255 0.2205,0.294 0.249,0.258 0.2745,0.2265 0.603,0.363 0.6555,0.258 c 0.3525,0.0975 0.684,0.165 1.0455,0.2175 0.3645,0.03 0.708,0.0405 1.0755,0.03 l 0.711,-0.081 c 0.3555,-0.0735 0.6795,-0.162 1.023,-0.2835 l 0.633,-0.3075 0.2925,-0.195 0.2745,-0.228 0.2505,-0.258 0.219,-0.294 0.18,-0.3255 0.135,-0.3555 0.084,-0.3795 0.0255,-0.3645 0.002,-15.1545 c 0.063,-0.321 0.4275,-0.6975 0.762,-0.72 l 9.13499,0.005 c 0.294,0.06 0.594,0.4245 0.6465,0.7125 l 0.005,15.156 0.024,0.363 0.0795,0.375 0.129,0.354 0.1725,0.327 0.21,0.294 0.24,0.2625 0.2655,0.231 0.5865,0.375 0.639,0.27 c 0.3435,0.102 0.666,0.1755 1.02,0.2325 0.3585,0.0345 0.693,0.048 1.053,0.0405 l 0.6975,-0.078 c 0.351,-0.075 0.6675,-0.1635 1.005,-0.2865 l 0.6195,-0.318 0.288,-0.201 0.2685,-0.234 0.2415,-0.267 0.2115,-0.3 0.171,-0.33 0.1275,-0.36 0.078,-0.381 0.024,-0.3705 0,-21.2895 -0.021,-0.2895 -0.063,-0.3075 -0.2235,-0.567 -0.3225,-0.501 c -0.1965,-0.234 -0.39,-0.4305 -0.6195,-0.63 l -0.4875,-0.333 c -0.279,-0.144 -0.528,-0.246 -0.828,-0.336 l -0.5805,-0.075 -20.91599,0"
         id="path3634"
         style="fill:#102035;fill-opacity:1;fill-rule:evenodd;stroke:none" />
      <path
         d="m 337.1922,379.34368 0.018,-0.2775 0.1455,-0.579 0.255,-0.5265 c 0.1635,-0.2505 0.327,-0.4605 0.5295,-0.6825 l 0.435,-0.3795 c 0.252,-0.171 0.483,-0.3 0.7635,-0.423 l 0.5835,-0.1515 0.2805,-0.0195 18.555,0 0.2805,0.0195 0.5835,0.1515 0.5235,0.261 c 0.249,0.168 0.4575,0.336 0.6765,0.5415 l 0.3705,0.441 c 0.1665,0.255 0.2925,0.4875 0.4125,0.768 l 0.1455,0.579 0.0195,0.2775 0,12.021 -0.0225,0.2775 -0.0675,0.2955 -0.237,0.5295 c -0.1605,0.2415 -0.318,0.4365 -0.5205,0.645 -0.21,0.1845 -0.4125,0.3375 -0.648,0.4875 -0.246,0.1335 -0.474,0.2355 -0.7365,0.3285 -0.2715,0.0705 -0.5055,0.111 -0.786,0.126 l -12.9225,0.0165 c -0.294,0.102 -0.2955,0.4635 -0.2355,0.7215 0.093,0.2205 0.15,0.2415 0.387,0.267 l 12.78,0 0.3675,0.027 0.384,0.087 0.3585,0.1425 0.327,0.189 0.2925,0.2265 0.258,0.2595 0.2235,0.282 0.36,0.6225 0.2535,0.6735 c 0.096,0.3615 0.1635,0.705 0.2145,1.077 0.03,0.375 0.0405,0.7305 0.03,1.107 l -0.081,0.7335 c -0.072,0.3645 -0.159,0.699 -0.279,1.053 l -0.3045,0.651 -0.1935,0.3015 -0.2235,0.2835 -0.258,0.258 -0.2925,0.228 -0.327,0.1905 -0.3585,0.141 -0.384,0.087 -0.369,0.027 -18.5565,0 -0.282,-0.0195 -0.5895,-0.156 -0.5265,-0.2655 c -0.249,-0.171 -0.456,-0.342 -0.6735,-0.5505 l -0.369,-0.447 c -0.165,-0.2565 -0.2895,-0.492 -0.408,-0.7725 l -0.144,-0.582 -0.018,-0.279 0,-21.291 z m 8.808,5.418 c -0.183,0.0285 -0.252,0.045 -0.354,0.201 -0.105,0.2445 -0.123,0.621 0.18,0.7215 l 7.4025,0.015 0.126,-0.0195 c 0.2085,-0.147 0.207,-0.753 0,-0.897 l -0.126,-0.021 -7.2285,0"
         id="path3636"
         style="fill:#102035;fill-opacity:1;fill-rule:evenodd;stroke:none" />
      <path
         d="m 363.8562,379.34368 0.0195,-0.282 0.153,-0.591 0.264,-0.528 c 0.171,-0.2505 0.3405,-0.462 0.549,-0.6825 l 0.447,-0.375 c 0.2565,-0.1665 0.492,-0.294 0.7755,-0.414 l 0.5865,-0.147 0.2805,-0.0195 12.4155,0 0.351,0.0285 0.3675,0.0885 0.342,0.1455 0.309,0.1935 0.273,0.2295 0.2355,0.2565 0.375,0.576 0.2685,0.6345 c 0.1035,0.342 0.18,0.6675 0.2415,1.02 0.042,0.3585 0.063,0.702 0.0705,1.065 -0.0125,0.36 -0.042,0.7035 -0.09,1.062 l -0.15,0.6855 c -0.1065,0.3375 -0.2235,0.6375 -0.3765,0.957 l -0.372,0.57 -0.2325,0.2565 -0.2655,0.228 -0.303,0.1935 -0.336,0.147 -0.363,0.0915 -0.3435,0.0285 -5.5455,0.01 c -0.741,0.1455 -1.3305,0.726 -1.6245,1.4025 -0.0495,0.156 -0.0735,0.2775 -0.0855,0.4425 l 0,14.019 -0.0255,0.3645 -0.0795,0.378 -0.132,0.3555 -0.177,0.327 -0.2145,0.294 -0.246,0.2595 -0.2715,0.2265 -0.5955,0.363 -0.648,0.255 c -0.348,0.0945 -0.675,0.1605 -1.0305,0.21 -0.36,0.0285 -0.699,0.036 -1.059,0.0225 l -0.699,-0.087 c -0.351,-0.075 -0.669,-0.1665 -1.005,-0.288 l -0.621,-0.3105 -0.288,-0.1935 -0.2685,-0.225 -0.246,-0.2565 -0.213,-0.291 -0.177,-0.321 -0.1335,-0.351 -0.081,-0.3735 -0.0255,-0.3585 0,-21.2925"
         id="path3638"
         style="fill:#102035;fill-opacity:1;fill-rule:evenodd;stroke:none" />
      <path
         d="m 230.85271,383.87368 c -2.6175,0 -2.4075,-6.681 0.2205,-6.681 l 23.742,0 c 2.0325,0 3.12,4.059 1.9635,5.226 l -26.9055,27.102 139.79399,0.0435 -6.846,6.567 -141.48449,0 c -1.8195,0 -3.423,-3.369 -1.872,-5.145 1.5495,-1.7745 25.6065,-25.6515 26.535,-27.1125 l -15.147,0"
         id="path3640"
         style="fill:#ed1c24;fill-opacity:1;fill-rule:evenodd;stroke:none" />
      <path
         d="m 230.85271,383.87368 c -2.6175,0 -2.4075,-6.681 0.2205,-6.681 l 23.742,0 c 2.0325,0 3.12,4.059 1.9635,5.226 l -26.9055,27.102 139.79399,0.0435 -6.846,6.567 -141.48449,0 c -1.8195,0 -3.423,-3.369 -1.872,-5.145 1.5495,-1.7745 25.6065,-25.6515 26.535,-27.1125 l -15.147,0 z"
         id="path3642"
         style="fill:none;stroke:#ed1c24;stroke-width:0.26999998;stroke-linecap:butt;stroke-linejoin:miter;stroke-miterlimit:22.92560005;stroke-opacity:1;stroke-dasharray:none" />
      <path
         d="m 267.85321,383.87368 c -0.618,0.099 -0.9135,0.4695 -1.0305,1.029 l 0,10.014 c 0.0555,0.693 0.3915,0.8955 1.0305,1.0455 l 9.8055,0 c 0.7035,-0.132 0.9375,-0.453 1.0575,-1.0455 l 0,-10.014 c -0.0615,-0.6615 -0.201,-0.87 -1.0575,-1.029 l -9.8055,0 z m -5.4465,-6.681 c -1.308,0.21 -1.935,0.996 -2.181,2.1825 l 0,21.2295 c 0.1155,1.47 0.8265,1.899 2.181,2.214 l 20.787,0 c 1.4925,-0.279 1.989,-0.957 2.2425,-2.214 l 0,-21.2295 c -0.132,-1.4055 -0.4275,-1.845 -2.2425,-2.1825 l -20.787,0"
         id="path3644"
         style="fill:#ed1c24;fill-opacity:1;fill-rule:evenodd;stroke:none" />
      <path
         d="m 288.93271,370.55218 0,30.0525 c 0,3.072 6.39,3.072 6.39,0 l 0,-30.0525 c 0,-2.7555 -6.2955,-2.754 -6.39,0"
         id="path3646"
         style="fill:#ed1c24;fill-opacity:1;fill-rule:evenodd;stroke:none" />
      <path
         d="m 288.93271,370.55218 0,30.0525 c 0,3.072 6.39,3.072 6.39,0 l 0,-30.0525 c 0,-2.7555 -6.2955,-2.754 -6.39,0 z"
         id="path3648"
         style="fill:none;stroke:#102035;stroke-width:0.26999998;stroke-linecap:butt;stroke-linejoin:miter;stroke-miterlimit:22.92560005;stroke-opacity:1;stroke-dasharray:none" />
      <path
         d="m 298.91521,370.53718 0,30.051 c 0,3.072 6.39,3.072 6.39,0 l 0,-30.051 c 0,-2.757 -6.2955,-2.754 -6.39,0"
         id="path3650"
         style="fill:#ed1c24;fill-opacity:1;fill-rule:evenodd;stroke:none" />
      <path
         d="m 298.91521,370.53718 0,30.051 c 0,3.072 6.39,3.072 6.39,0 l 0,-30.051 c 0,-2.757 -6.2955,-2.754 -6.39,0 z"
         id="path3652"
         style="fill:none;stroke:#102035;stroke-width:0.26999998;stroke-linecap:butt;stroke-linejoin:miter;stroke-miterlimit:22.92560005;stroke-opacity:1;stroke-dasharray:none" />
      <path
         d="m 311.28571,377.19268 c -1.023,0 -2.16,1.1595 -2.16,2.1825 l 0,21.2295 c 0,2.9655 6.6,2.9655 6.6,0 l 0,-15.0945 c 0,-0.768 0.8535,-1.6365 1.6215,-1.6365 l 9.14699,0 c 0.753,0 1.5585,0.8835 1.5585,1.6365 l 0,15.0945 c 0,2.973 6.375,3.087 6.375,0 l 0,-21.2295 c 0,-1.0545 -1.2345,-2.1825 -2.2875,-2.1825 l -20.85449,0"
         id="path3654"
         style="fill:#ed1c24;fill-opacity:1;fill-rule:evenodd;stroke:none" />
      <path
         d="m 311.28571,377.19268 c -1.023,0 -2.16,1.1595 -2.16,2.1825 l 0,21.2295 c 0,2.9655 6.6,2.9655 6.6,0 l 0,-15.0945 c 0,-0.768 0.8535,-1.6365 1.6215,-1.6365 l 9.14699,0 c 0.753,0 1.5585,0.8835 1.5585,1.6365 l 0,15.0945 c 0,2.973 6.375,3.087 6.375,0 l 0,-21.2295 c 0,-1.0545 -1.2345,-2.1825 -2.2875,-2.1825 l -20.85449,0 z"
         id="path3656"
         style="fill:none;stroke:#102035;stroke-width:0.26999998;stroke-linecap:butt;stroke-linejoin:miter;stroke-miterlimit:22.92560005;stroke-opacity:1;stroke-dasharray:none" />
      <path
         d="m 338.0802,379.37518 c 0,-1.0215 1.131,-2.1825 2.1525,-2.1825 l 18.495,0 c 1.0215,0 2.154,1.161 2.154,2.1825 l 0,11.955 c 0,0.9435 -1.2105,1.836 -2.154,1.836 l -12.795,0 c -1.6875,0 -1.6875,2.781 0,2.781 l 12.795,0 c 2.9655,0 2.9655,6.8715 0,6.8715 l -18.495,0 c -1.029,0 -2.1525,-1.1835 -2.1525,-2.214 l 0,-21.2295 z m 7.8525,4.4985 c -1.6635,0.084 -1.6665,2.7135 0,2.7135 l 7.347,0 c 1.497,0 1.4955,-2.7135 0,-2.7135 l -7.347,0"
         id="path3658"
         style="fill:#ed1c24;fill-opacity:1;fill-rule:evenodd;stroke:none" />
      <path
         d="m 338.0802,379.37518 c 0,-1.0215 1.131,-2.1825 2.1525,-2.1825 l 18.495,0 c 1.0215,0 2.154,1.161 2.154,2.1825 l 0,11.955 c 0,0.9435 -1.2105,1.836 -2.154,1.836 l -12.795,0 c -1.6875,0 -1.6875,2.781 0,2.781 l 12.795,0 c 2.9655,0 2.9655,6.8715 0,6.8715 l -18.495,0 c -1.029,0 -2.1525,-1.1835 -2.1525,-2.214 l 0,-21.2295 z m 7.8525,4.4985 c -1.6635,0.084 -1.6665,2.7135 0,2.7135 l 7.347,0 c 1.497,0 1.4955,-2.7135 0,-2.7135 l -7.347,0 z"
         id="path3660"
         style="fill:none;stroke:#102035;stroke-width:0.26999998;stroke-linecap:butt;stroke-linejoin:miter;stroke-miterlimit:22.92560005;stroke-opacity:1;stroke-dasharray:none" />
      <path
         d="m 364.7442,379.37518 c 0,-1.038 1.1805,-2.1825 2.217,-2.1825 l 12.3495,0 c 2.7015,0 2.5785,6.681 0,6.681 l -5.382,0 c -1.2825,0 -2.724,1.4325 -2.724,2.7135 l 0,14.0175 c 0,2.997 -6.4605,2.898 -6.4605,0 l 0,-21.2295"
         id="path3662"
         style="fill:#ed1c24;fill-opacity:1;fill-rule:evenodd;stroke:none" />
      <path
         d="m 364.7442,379.37518 c 0,-1.038 1.1805,-2.1825 2.217,-2.1825 l 12.3495,0 c 2.7015,0 2.5785,6.681 0,6.681 l -5.382,0 c -1.2825,0 -2.724,1.4325 -2.724,2.7135 l 0,14.0175 c 0,2.997 -6.4605,2.898 -6.4605,0 l 0,-21.2295 z"
         id="path3664"
         style="fill:none;stroke:#102035;stroke-width:0.26999998;stroke-linecap:butt;stroke-linejoin:miter;stroke-miterlimit:22.92560005;stroke-opacity:1;stroke-dasharray:none" />
    </g>
  </g>
</svg>
